<?xml version="1.0" encoding="UTF-8"?>
<!DOCTYPE svg PUBLIC "-//W3C//DTD SVG 1.1//EN"
  "http://www.w3.org/Graphics/SVG/1.1/DTD/svg11.dtd">
<svg xmlns="http://www.w3.org/2000/svg" xmlns:xlink="http://www.w3.org/1999/xlink"   viewBox="0.00 0.00 425.00 390.00">
<!-- Created by OpenEye Scientific Software -->
<!-- Creation Date Sun May  8 15:27:43 2022 -->
<rect width="425.00" height="390.00" fill="white" />
<line x1="211.61" y1="344.12" x2="211.61" y2="344.44" stroke="#ff0080" stroke-width="2" stroke-linejoin="round" stroke-linecap="round" />
<line x1="211.61" y1="344.12" x2="211.61" y2="325.37" stroke="black" stroke-width="2" stroke-linejoin="round" stroke-linecap="round" />
<line x1="211.61" y1="325.37" x2="177.88" y2="305.95" stroke="black" stroke-width="2" stroke-linejoin="round" stroke-linecap="round" />
<line x1="211.61" y1="325.37" x2="245.39" y2="305.89" stroke="black" stroke-width="2" stroke-linejoin="round" stroke-linecap="round" />
<line x1="213.52" y1="316.19" x2="236.49" y2="302.95" stroke="black" stroke-width="2" stroke-linejoin="round" stroke-linecap="round" />
<line x1="245.39" y1="305.89" x2="245.15" y2="267.09" stroke="black" stroke-width="2" stroke-linejoin="round" stroke-linecap="round" />
<line x1="245.15" y1="267.09" x2="283.98" y2="267.28" stroke="black" stroke-width="2" stroke-linejoin="round" stroke-linecap="round" />
<line x1="245.15" y1="267.09" x2="211.43" y2="247.68" stroke="black" stroke-width="2" stroke-linejoin="round" stroke-linecap="round" />
<line x1="236.26" y1="270.05" x2="213.33" y2="256.85" stroke="black" stroke-width="2" stroke-linejoin="round" stroke-linecap="round" />
<line x1="211.43" y1="247.68" x2="177.94" y2="267.07" stroke="black" stroke-width="2" stroke-linejoin="round" stroke-linecap="round" />
<line x1="177.94" y1="267.07" x2="177.88" y2="305.95" stroke="black" stroke-width="2" stroke-linejoin="round" stroke-linecap="round" />
<line x1="184.93" y1="273.30" x2="184.89" y2="299.74" stroke="black" stroke-width="2" stroke-linejoin="round" stroke-linecap="round" />
<line x1="177.94" y1="267.07" x2="140.44" y2="267.48" stroke="black" stroke-width="2" stroke-linejoin="round" stroke-linecap="round" />
<line x1="140.44" y1="267.48" x2="140.64" y2="228.66" stroke="black" stroke-width="2" stroke-linejoin="round" stroke-linecap="round" />
<line x1="140.64" y1="228.66" x2="159.94" y2="195.22" stroke="black" stroke-width="2" stroke-linejoin="round" stroke-linecap="round" />
<line x1="140.64" y1="228.66" x2="101.82" y2="228.66" stroke="black" stroke-width="2" stroke-linejoin="round" stroke-linecap="round" />
<line x1="134.43" y1="221.66" x2="108.03" y2="221.66" stroke="black" stroke-width="2" stroke-linejoin="round" stroke-linecap="round" />
<line x1="101.82" y1="228.66" x2="82.30" y2="195.22" stroke="black" stroke-width="2" stroke-linejoin="round" stroke-linecap="round" />
<line x1="82.30" y1="195.22" x2="101.82" y2="161.56" stroke="black" stroke-width="2" stroke-linejoin="round" stroke-linecap="round" />
<line x1="91.47" y1="193.35" x2="104.75" y2="170.46" stroke="black" stroke-width="2" stroke-linejoin="round" stroke-linecap="round" />
<line x1="101.82" y1="161.56" x2="140.64" y2="161.56" stroke="black" stroke-width="2" stroke-linejoin="round" stroke-linecap="round" />
<line x1="140.64" y1="161.56" x2="159.94" y2="195.22" stroke="black" stroke-width="2" stroke-linejoin="round" stroke-linecap="round" />
<line x1="137.66" y1="170.43" x2="150.78" y2="193.32" stroke="black" stroke-width="2" stroke-linejoin="round" stroke-linecap="round" />
<line x1="178.69" y1="195.24" x2="159.94" y2="195.22" stroke="black" stroke-width="2" stroke-linejoin="round" stroke-linecap="round" />
<line x1="178.69" y1="195.24" x2="186.81" y2="195.25" stroke="red" stroke-width="2" stroke-linejoin="round" stroke-linecap="round" />
<line x1="206.84" y1="179.04" x2="202.77" y2="186.07" stroke="red" stroke-width="2" stroke-linejoin="round" stroke-linecap="round" />
<line x1="206.84" y1="179.04" x2="216.24" y2="162.82" stroke="black" stroke-width="2" stroke-linejoin="round" stroke-linecap="round" />
<line x1="216.24" y1="162.82" x2="253.74" y2="162.87" stroke="black" stroke-width="2" stroke-linejoin="round" stroke-linecap="round" />
<line x1="266.16" y1="148.40" x2="256.77" y2="164.62" stroke="black" stroke-width="2" stroke-linejoin="round" stroke-linecap="round" />
<line x1="266.16" y1="148.40" x2="270.23" y2="141.37" stroke="red" stroke-width="2" stroke-linejoin="round" stroke-linecap="round" />
<line x1="260.11" y1="144.89" x2="250.71" y2="161.12" stroke="black" stroke-width="2" stroke-linejoin="round" stroke-linecap="round" />
<line x1="260.11" y1="144.89" x2="264.18" y2="137.87" stroke="red" stroke-width="2" stroke-linejoin="round" stroke-linecap="round" />
<line x1="263.09" y1="179.12" x2="253.74" y2="162.87" stroke="black" stroke-width="2" stroke-linejoin="round" stroke-linecap="round" />
<line x1="263.09" y1="179.12" x2="267.14" y2="186.16" stroke="#ff0080" stroke-width="2" stroke-linejoin="round" stroke-linecap="round" />
<line x1="140.64" y1="161.56" x2="140.44" y2="122.57" stroke="black" stroke-width="2" stroke-linejoin="round" stroke-linecap="round" />
<line x1="140.44" y1="122.57" x2="179.27" y2="122.57" stroke="black" stroke-width="2" stroke-linejoin="round" stroke-linecap="round" />
<line x1="179.27" y1="122.57" x2="212.80" y2="141.98" stroke="black" stroke-width="2" stroke-linejoin="round" stroke-linecap="round" />
<line x1="179.27" y1="122.57" x2="179.13" y2="83.94" stroke="black" stroke-width="2" stroke-linejoin="round" stroke-linecap="round" />
<line x1="186.25" y1="116.37" x2="186.15" y2="90.09" stroke="black" stroke-width="2" stroke-linejoin="round" stroke-linecap="round" />
<line x1="179.13" y1="83.94" x2="212.81" y2="64.63" stroke="black" stroke-width="2" stroke-linejoin="round" stroke-linecap="round" />
<line x1="212.81" y1="64.63" x2="246.34" y2="84.04" stroke="black" stroke-width="2" stroke-linejoin="round" stroke-linecap="round" />
<line x1="214.67" y1="73.80" x2="237.47" y2="87.00" stroke="black" stroke-width="2" stroke-linejoin="round" stroke-linecap="round" />
<line x1="246.34" y1="84.04" x2="246.19" y2="122.76" stroke="black" stroke-width="2" stroke-linejoin="round" stroke-linecap="round" />
<line x1="246.19" y1="122.76" x2="212.80" y2="141.98" stroke="black" stroke-width="2" stroke-linejoin="round" stroke-linecap="round" />
<line x1="237.36" y1="119.77" x2="214.65" y2="132.84" stroke="black" stroke-width="2" stroke-linejoin="round" stroke-linecap="round" />
<line x1="212.78" y1="160.73" x2="212.80" y2="141.98" stroke="black" stroke-width="2" stroke-linejoin="round" stroke-linecap="round" />
<line x1="212.78" y1="160.73" x2="212.77" y2="168.85" stroke="red" stroke-width="2" stroke-linejoin="round" stroke-linecap="round" />
<line x1="228.98" y1="188.88" x2="221.96" y2="184.81" stroke="red" stroke-width="2" stroke-linejoin="round" stroke-linecap="round" />
<line x1="228.98" y1="188.88" x2="245.21" y2="198.27" stroke="black" stroke-width="2" stroke-linejoin="round" stroke-linecap="round" />
<line x1="245.21" y1="198.27" x2="245.16" y2="235.77" stroke="black" stroke-width="2" stroke-linejoin="round" stroke-linecap="round" />
<line x1="259.64" y1="248.19" x2="243.41" y2="238.80" stroke="black" stroke-width="2" stroke-linejoin="round" stroke-linecap="round" />
<line x1="259.64" y1="248.19" x2="266.66" y2="252.26" stroke="red" stroke-width="2" stroke-linejoin="round" stroke-linecap="round" />
<line x1="263.14" y1="242.14" x2="246.92" y2="232.74" stroke="black" stroke-width="2" stroke-linejoin="round" stroke-linecap="round" />
<line x1="263.14" y1="242.14" x2="270.17" y2="246.20" stroke="red" stroke-width="2" stroke-linejoin="round" stroke-linecap="round" />
<line x1="228.91" y1="245.13" x2="245.16" y2="235.77" stroke="black" stroke-width="2" stroke-linejoin="round" stroke-linecap="round" />
<line x1="228.91" y1="245.13" x2="221.88" y2="249.18" stroke="#ff0080" stroke-width="2" stroke-linejoin="round" stroke-linecap="round" />
<line x1="246.19" y1="122.76" x2="284.96" y2="122.57" stroke="black" stroke-width="2" stroke-linejoin="round" stroke-linecap="round" />
<line x1="284.96" y1="122.57" x2="284.76" y2="161.40" stroke="black" stroke-width="2" stroke-linejoin="round" stroke-linecap="round" />
<line x1="284.76" y1="161.40" x2="323.50" y2="161.43" stroke="black" stroke-width="2" stroke-linejoin="round" stroke-linecap="round" />
<line x1="284.76" y1="161.40" x2="265.15" y2="194.93" stroke="black" stroke-width="2" stroke-linejoin="round" stroke-linecap="round" />
<line x1="287.67" y1="170.29" x2="274.33" y2="193.10" stroke="black" stroke-width="2" stroke-linejoin="round" stroke-linecap="round" />
<line x1="265.15" y1="194.93" x2="284.28" y2="228.49" stroke="black" stroke-width="2" stroke-linejoin="round" stroke-linecap="round" />
<line x1="284.28" y1="228.49" x2="323.10" y2="228.81" stroke="black" stroke-width="2" stroke-linejoin="round" stroke-linecap="round" />
<line x1="290.55" y1="221.54" x2="316.94" y2="221.76" stroke="black" stroke-width="2" stroke-linejoin="round" stroke-linecap="round" />
<line x1="323.10" y1="228.81" x2="342.70" y2="195.28" stroke="black" stroke-width="2" stroke-linejoin="round" stroke-linecap="round" />
<line x1="342.70" y1="195.28" x2="323.50" y2="161.43" stroke="black" stroke-width="2" stroke-linejoin="round" stroke-linecap="round" />
<line x1="333.54" y1="193.32" x2="320.48" y2="170.30" stroke="black" stroke-width="2" stroke-linejoin="round" stroke-linecap="round" />
<line x1="361.45" y1="195.40" x2="342.70" y2="195.28" stroke="black" stroke-width="2" stroke-linejoin="round" stroke-linecap="round" />
<line x1="361.45" y1="195.40" x2="361.77" y2="195.41" stroke="#ff0080" stroke-width="2" stroke-linejoin="round" stroke-linecap="round" />
<line x1="284.28" y1="228.49" x2="283.98" y2="267.28" stroke="black" stroke-width="2" stroke-linejoin="round" stroke-linecap="round" />
<line x1="246.40" y1="194.82" x2="265.15" y2="194.93" stroke="black" stroke-width="2" stroke-linejoin="round" stroke-linecap="round" />
<line x1="246.40" y1="194.82" x2="238.29" y2="194.78" stroke="red" stroke-width="2" stroke-linejoin="round" stroke-linecap="round" />
<line x1="218.19" y1="210.91" x2="222.29" y2="203.90" stroke="red" stroke-width="2" stroke-linejoin="round" stroke-linecap="round" />
<line x1="218.19" y1="210.91" x2="208.72" y2="227.09" stroke="black" stroke-width="2" stroke-linejoin="round" stroke-linecap="round" />
<line x1="208.72" y1="227.09" x2="171.23" y2="226.88" stroke="black" stroke-width="2" stroke-linejoin="round" stroke-linecap="round" />
<line x1="158.74" y1="241.30" x2="168.20" y2="225.12" stroke="black" stroke-width="2" stroke-linejoin="round" stroke-linecap="round" />
<line x1="158.74" y1="241.30" x2="154.64" y2="248.31" stroke="red" stroke-width="2" stroke-linejoin="round" stroke-linecap="round" />
<line x1="164.78" y1="244.84" x2="174.25" y2="228.65" stroke="black" stroke-width="2" stroke-linejoin="round" stroke-linecap="round" />
<line x1="164.78" y1="244.84" x2="160.68" y2="251.84" stroke="red" stroke-width="2" stroke-linejoin="round" stroke-linecap="round" />
<line x1="161.94" y1="210.59" x2="171.23" y2="226.88" stroke="black" stroke-width="2" stroke-linejoin="round" stroke-linecap="round" />
<line x1="161.94" y1="210.59" x2="157.92" y2="203.54" stroke="#ff0080" stroke-width="2" stroke-linejoin="round" stroke-linecap="round" />
<line x1="212.85" y1="45.88" x2="212.81" y2="64.63" stroke="black" stroke-width="2" stroke-linejoin="round" stroke-linecap="round" />
<line x1="212.85" y1="45.88" x2="212.85" y2="45.56" stroke="#ff0080" stroke-width="2" stroke-linejoin="round" stroke-linecap="round" />
<line x1="63.55" y1="195.24" x2="82.30" y2="195.22" stroke="black" stroke-width="2" stroke-linejoin="round" stroke-linecap="round" />
<line x1="63.55" y1="195.24" x2="63.23" y2="195.24" stroke="#ff0080" stroke-width="2" stroke-linejoin="round" stroke-linecap="round" />
<line x1="211.40" y1="228.93" x2="211.43" y2="247.68" stroke="black" stroke-width="2" stroke-linejoin="round" stroke-linecap="round" />
<line x1="211.40" y1="228.93" x2="211.39" y2="220.81" stroke="red" stroke-width="2" stroke-linejoin="round" stroke-linecap="round" />
<line x1="195.13" y1="200.82" x2="202.16" y2="204.87" stroke="red" stroke-width="2" stroke-linejoin="round" stroke-linecap="round" />
<line x1="195.13" y1="200.82" x2="178.88" y2="191.47" stroke="black" stroke-width="2" stroke-linejoin="round" stroke-linecap="round" />
<line x1="178.88" y1="191.47" x2="178.83" y2="153.97" stroke="black" stroke-width="2" stroke-linejoin="round" stroke-linecap="round" />
<line x1="164.32" y1="141.58" x2="180.57" y2="150.94" stroke="black" stroke-width="2" stroke-linejoin="round" stroke-linecap="round" />
<line x1="164.32" y1="141.58" x2="157.29" y2="137.53" stroke="red" stroke-width="2" stroke-linejoin="round" stroke-linecap="round" />
<line x1="160.83" y1="147.65" x2="177.08" y2="157.00" stroke="black" stroke-width="2" stroke-linejoin="round" stroke-linecap="round" />
<line x1="160.83" y1="147.65" x2="153.80" y2="143.60" stroke="red" stroke-width="2" stroke-linejoin="round" stroke-linecap="round" />
<line x1="195.05" y1="144.57" x2="178.83" y2="153.97" stroke="black" stroke-width="2" stroke-linejoin="round" stroke-linecap="round" />
<line x1="195.05" y1="144.57" x2="202.08" y2="140.50" stroke="#ff0080" stroke-width="2" stroke-linejoin="round" stroke-linecap="round" />
<text x="211.62" y="368.15" fill="#ff0080" font-family="Arial" font-size="16" font-style="normal" font-weight="normal" text-anchor="middle">  tBu </text>
<text x="197.44" y="200.55" fill="red" font-family="Arial" font-size="16" font-style="normal" font-weight="normal" text-anchor="middle">  O </text>
<text x="272.53" y="135.70" fill="red" font-family="Arial" font-size="16" font-style="normal" font-weight="normal" text-anchor="middle">  O </text>
<text x="272.44" y="200.65" fill="#ff0080" font-family="Arial" font-size="16" font-style="normal" font-weight="normal" text-anchor="middle">  O </text>
<text x="279.08" y="200.65" fill="#ff0080" font-family="Arial" font-size="16" font-style="normal" font-weight="normal" text-anchor="start">  Me </text>
<text x="212.76" y="184.76" fill="red" font-family="Arial" font-size="16" font-style="normal" font-weight="normal" text-anchor="middle">  O </text>
<text x="277.62" y="259.84" fill="red" font-family="Arial" font-size="16" font-style="normal" font-weight="normal" text-anchor="middle">  O </text>
<text x="212.67" y="259.76" fill="#ff0080" font-family="Arial" font-size="16" font-style="normal" font-weight="normal" text-anchor="middle">  O </text>
<text x="206.03" y="259.76" fill="#ff0080" font-family="Arial" font-size="16" font-style="normal" font-weight="normal" text-anchor="end">  Me </text>
<text x="380.20" y="200.81" fill="#ff0080" font-family="Arial" font-size="16" font-style="normal" font-weight="normal" text-anchor="middle">  tBu </text>
<text x="227.65" y="200.00" fill="red" font-family="Arial" font-size="16" font-style="normal" font-weight="normal" text-anchor="middle">  O </text>
<text x="152.29" y="264.53" fill="red" font-family="Arial" font-size="16" font-style="normal" font-weight="normal" text-anchor="middle">  O </text>
<text x="152.66" y="199.58" fill="#ff0080" font-family="Arial" font-size="16" font-style="normal" font-weight="normal" text-anchor="middle">  O </text>
<text x="146.02" y="199.58" fill="#ff0080" font-family="Arial" font-size="16" font-style="normal" font-weight="normal" text-anchor="end">  Me </text>
<text x="212.89" y="32.41" fill="#ff0080" font-family="Arial" font-size="16" font-style="normal" font-weight="normal" text-anchor="middle">  tBu </text>
<text x="44.80" y="200.55" fill="#ff0080" font-family="Arial" font-size="16" font-style="normal" font-weight="normal" text-anchor="middle">  tBu </text>
<text x="211.38" y="215.46" fill="red" font-family="Arial" font-size="16" font-style="normal" font-weight="normal" text-anchor="middle">  O </text>
<text x="146.33" y="140.54" fill="red" font-family="Arial" font-size="16" font-style="normal" font-weight="normal" text-anchor="middle">  O </text>
<text x="211.28" y="140.46" fill="#ff0080" font-family="Arial" font-size="16" font-style="normal" font-weight="normal" text-anchor="middle">  O </text>
<text x="217.92" y="140.46" fill="#ff0080" font-family="Arial" font-size="16" font-style="normal" font-weight="normal" text-anchor="start">  Me </text>
</svg>
