<?xml version="1.0" encoding="UTF-8"?>
<!DOCTYPE svg PUBLIC "-//W3C//DTD SVG 1.1//EN"
  "http://www.w3.org/Graphics/SVG/1.1/DTD/svg11.dtd">
<svg xmlns="http://www.w3.org/2000/svg" xmlns:xlink="http://www.w3.org/1999/xlink"   viewBox="0.00 0.00 339.00 158.00">
<!-- Created by OpenEye Scientific Software -->
<!-- Creation Date Sun Nov  6 10:00:17 2022 -->
<rect width="339.00" height="158.00" fill="white" />
<line x1="283.58" y1="131.22" x2="291.75" y2="136.02" stroke="blue" stroke-width="2" stroke-linejoin="round" stroke-linecap="round" />
<line x1="283.58" y1="131.22" x2="267.42" y2="121.71" stroke="black" stroke-width="2" stroke-linejoin="round" stroke-linecap="round" />
<line x1="267.42" y1="121.71" x2="234.62" y2="140.33" stroke="black" stroke-width="2" stroke-linejoin="round" stroke-linecap="round" />
<line x1="267.42" y1="121.71" x2="267.75" y2="84.11" stroke="black" stroke-width="2" stroke-linejoin="round" stroke-linecap="round" />
<line x1="260.47" y1="115.63" x2="260.70" y2="90.07" stroke="black" stroke-width="2" stroke-linejoin="round" stroke-linecap="round" />
<line x1="234.62" y1="140.33" x2="202.21" y2="121.41" stroke="black" stroke-width="2" stroke-linejoin="round" stroke-linecap="round" />
<line x1="232.97" y1="131.25" x2="210.92" y2="118.39" stroke="black" stroke-width="2" stroke-linejoin="round" stroke-linecap="round" />
<line x1="300.64" y1="65.46" x2="267.75" y2="84.11" stroke="black" stroke-width="2" stroke-linejoin="round" stroke-linecap="round" />
<line x1="300.64" y1="65.46" x2="301.04" y2="27.47" stroke="black" stroke-width="2" stroke-linejoin="round" stroke-linecap="round" />
<line x1="293.70" y1="59.31" x2="293.97" y2="33.47" stroke="black" stroke-width="2" stroke-linejoin="round" stroke-linecap="round" />
<line x1="267.75" y1="84.11" x2="234.97" y2="64.85" stroke="black" stroke-width="2" stroke-linejoin="round" stroke-linecap="round" />
<line x1="185.78" y1="130.79" x2="202.21" y2="121.41" stroke="black" stroke-width="2" stroke-linejoin="round" stroke-linecap="round" />
<line x1="185.78" y1="130.79" x2="178.58" y2="134.90" stroke="red" stroke-width="2" stroke-linejoin="round" stroke-linecap="round" />
<line x1="202.21" y1="121.41" x2="202.38" y2="83.67" stroke="black" stroke-width="2" stroke-linejoin="round" stroke-linecap="round" />
<line x1="153.10" y1="130.70" x2="160.16" y2="134.82" stroke="red" stroke-width="2" stroke-linejoin="round" stroke-linecap="round" />
<line x1="153.10" y1="130.70" x2="136.84" y2="121.22" stroke="black" stroke-width="2" stroke-linejoin="round" stroke-linecap="round" />
<line x1="301.04" y1="27.47" x2="268.26" y2="8.21" stroke="black" stroke-width="2" stroke-linejoin="round" stroke-linecap="round" />
<line x1="234.97" y1="64.85" x2="202.38" y2="83.67" stroke="black" stroke-width="2" stroke-linejoin="round" stroke-linecap="round" />
<line x1="233.26" y1="73.92" x2="211.10" y2="86.72" stroke="black" stroke-width="2" stroke-linejoin="round" stroke-linecap="round" />
<line x1="234.97" y1="64.85" x2="235.08" y2="26.93" stroke="black" stroke-width="2" stroke-linejoin="round" stroke-linecap="round" />
<line x1="186.03" y1="74.09" x2="202.38" y2="83.67" stroke="black" stroke-width="2" stroke-linejoin="round" stroke-linecap="round" />
<line x1="186.03" y1="74.09" x2="177.68" y2="69.20" stroke="blue" stroke-width="2" stroke-linejoin="round" stroke-linecap="round" />
<line x1="136.84" y1="121.22" x2="104.35" y2="139.95" stroke="black" stroke-width="2" stroke-linejoin="round" stroke-linecap="round" />
<line x1="128.15" y1="118.15" x2="106.06" y2="130.89" stroke="black" stroke-width="2" stroke-linejoin="round" stroke-linecap="round" />
<line x1="136.84" y1="121.22" x2="137.00" y2="83.39" stroke="black" stroke-width="2" stroke-linejoin="round" stroke-linecap="round" />
<line x1="104.35" y1="139.95" x2="71.70" y2="121.22" stroke="black" stroke-width="2" stroke-linejoin="round" stroke-linecap="round" />
<line x1="268.26" y1="8.21" x2="235.08" y2="26.93" stroke="black" stroke-width="2" stroke-linejoin="round" stroke-linecap="round" />
<line x1="266.39" y1="17.30" x2="243.83" y2="30.03" stroke="black" stroke-width="2" stroke-linejoin="round" stroke-linecap="round" />
<line x1="153.34" y1="73.95" x2="161.64" y2="69.15" stroke="blue" stroke-width="2" stroke-linejoin="round" stroke-linecap="round" />
<line x1="153.34" y1="73.95" x2="137.00" y2="83.39" stroke="black" stroke-width="2" stroke-linejoin="round" stroke-linecap="round" />
<line x1="156.84" y1="80.01" x2="167.95" y2="73.59" stroke="blue" stroke-width="2" stroke-linejoin="round" stroke-linecap="round" />
<line x1="156.84" y1="80.01" x2="145.73" y2="86.43" stroke="black" stroke-width="2" stroke-linejoin="round" stroke-linecap="round" />
<line x1="137.00" y1="83.39" x2="104.35" y2="64.28" stroke="black" stroke-width="2" stroke-linejoin="round" stroke-linecap="round" />
<line x1="128.24" y1="86.38" x2="106.04" y2="73.38" stroke="black" stroke-width="2" stroke-linejoin="round" stroke-linecap="round" />
<line x1="55.48" y1="130.62" x2="71.70" y2="121.22" stroke="black" stroke-width="2" stroke-linejoin="round" stroke-linecap="round" />
<line x1="55.48" y1="130.62" x2="47.28" y2="135.37" stroke="blue" stroke-width="2" stroke-linejoin="round" stroke-linecap="round" />
<line x1="71.70" y1="121.22" x2="71.70" y2="83.39" stroke="black" stroke-width="2" stroke-linejoin="round" stroke-linecap="round" />
<line x1="78.70" y1="115.17" x2="78.70" y2="89.45" stroke="black" stroke-width="2" stroke-linejoin="round" stroke-linecap="round" />
<line x1="104.35" y1="64.28" x2="71.70" y2="83.39" stroke="black" stroke-width="2" stroke-linejoin="round" stroke-linecap="round" />
<text x="39.25" y="145.30" fill="blue" font-family="Arial" font-size="16" font-style="normal" font-weight="normal" text-anchor="middle">  N </text>
<text x="23.25" y="145.30" fill="blue" font-family="Arial" font-size="16" font-style="normal" font-weight="normal" text-anchor="middle">  H </text>
<text x="31.25" y="146.90" fill="blue" font-family="Arial" font-size="8" font-style="normal" font-weight="normal" text-anchor="middle">  2 </text>
<text x="169.35" y="145.46" fill="red" font-family="Arial" font-size="16" font-style="normal" font-weight="normal" text-anchor="middle">  O </text>
<text x="169.67" y="69.79" fill="blue" font-family="Arial" font-size="16" font-style="normal" font-weight="normal" text-anchor="middle">  N </text>
<text x="299.75" y="146.00" fill="blue" font-family="Arial" font-size="16" font-style="normal" font-weight="normal" text-anchor="middle">  N </text>
<text x="310.95" y="146.00" fill="blue" font-family="Arial" font-size="16" font-style="normal" font-weight="normal" text-anchor="middle">  H </text>
<text x="318.95" y="147.60" fill="blue" font-family="Arial" font-size="8" font-style="normal" font-weight="normal" text-anchor="middle">  2 </text>
</svg>
