<?xml version="1.0" encoding="UTF-8"?>
<!DOCTYPE svg PUBLIC "-//W3C//DTD SVG 1.1//EN"
  "http://www.w3.org/Graphics/SVG/1.1/DTD/svg11.dtd">
<svg xmlns="http://www.w3.org/2000/svg" xmlns:xlink="http://www.w3.org/1999/xlink"   viewBox="0.00 0.00 351.00 197.00">
<!-- Created by OpenEye Scientific Software -->
<!-- Creation Date Sun May  8 14:31:38 2022 -->
<rect width="351.00" height="197.00" fill="white" />
<line x1="65.37" y1="160.70" x2="65.38" y2="166.85" stroke="#ff0080" stroke-width="2" stroke-linejoin="round" stroke-linecap="round" />
<line x1="65.37" y1="160.70" x2="65.35" y2="151.23" stroke="blue" stroke-width="2" stroke-linejoin="round" stroke-linecap="round" />
<line x1="49.09" y1="132.60" x2="57.30" y2="137.32" stroke="blue" stroke-width="2" stroke-linejoin="round" stroke-linecap="round" />
<line x1="49.09" y1="132.60" x2="43.77" y2="129.54" stroke="#ff0080" stroke-width="2" stroke-linejoin="round" stroke-linecap="round" />
<line x1="81.57" y1="132.56" x2="73.37" y2="137.30" stroke="blue" stroke-width="2" stroke-linejoin="round" stroke-linecap="round" />
<line x1="81.57" y1="132.56" x2="97.79" y2="123.16" stroke="black" stroke-width="2" stroke-linejoin="round" stroke-linecap="round" />
<line x1="97.79" y1="123.16" x2="130.44" y2="141.88" stroke="black" stroke-width="2" stroke-linejoin="round" stroke-linecap="round" />
<line x1="106.50" y1="120.08" x2="128.70" y2="132.82" stroke="black" stroke-width="2" stroke-linejoin="round" stroke-linecap="round" />
<line x1="97.79" y1="123.16" x2="97.79" y2="85.33" stroke="black" stroke-width="2" stroke-linejoin="round" stroke-linecap="round" />
<line x1="97.79" y1="85.33" x2="130.44" y2="66.22" stroke="black" stroke-width="2" stroke-linejoin="round" stroke-linecap="round" />
<line x1="106.55" y1="88.31" x2="128.75" y2="75.32" stroke="black" stroke-width="2" stroke-linejoin="round" stroke-linecap="round" />
<line x1="130.44" y1="66.22" x2="163.09" y2="85.33" stroke="black" stroke-width="2" stroke-linejoin="round" stroke-linecap="round" />
<line x1="179.43" y1="75.88" x2="163.09" y2="85.33" stroke="black" stroke-width="2" stroke-linejoin="round" stroke-linecap="round" />
<line x1="179.43" y1="75.88" x2="187.72" y2="71.09" stroke="blue" stroke-width="2" stroke-linejoin="round" stroke-linecap="round" />
<line x1="163.09" y1="85.33" x2="162.93" y2="123.16" stroke="black" stroke-width="2" stroke-linejoin="round" stroke-linecap="round" />
<line x1="156.07" y1="91.35" x2="155.96" y2="117.07" stroke="black" stroke-width="2" stroke-linejoin="round" stroke-linecap="round" />
<line x1="162.93" y1="123.16" x2="130.44" y2="141.88" stroke="black" stroke-width="2" stroke-linejoin="round" stroke-linecap="round" />
<line x1="179.18" y1="132.63" x2="162.93" y2="123.16" stroke="black" stroke-width="2" stroke-linejoin="round" stroke-linecap="round" />
<line x1="179.18" y1="132.63" x2="186.25" y2="136.75" stroke="red" stroke-width="2" stroke-linejoin="round" stroke-linecap="round" />
<line x1="211.87" y1="132.73" x2="204.67" y2="136.84" stroke="red" stroke-width="2" stroke-linejoin="round" stroke-linecap="round" />
<line x1="211.87" y1="132.73" x2="228.29" y2="123.34" stroke="black" stroke-width="2" stroke-linejoin="round" stroke-linecap="round" />
<line x1="228.29" y1="123.34" x2="228.47" y2="85.60" stroke="black" stroke-width="2" stroke-linejoin="round" stroke-linecap="round" />
<line x1="228.29" y1="123.34" x2="260.71" y2="142.26" stroke="black" stroke-width="2" stroke-linejoin="round" stroke-linecap="round" />
<line x1="237.01" y1="120.32" x2="259.05" y2="133.19" stroke="black" stroke-width="2" stroke-linejoin="round" stroke-linecap="round" />
<line x1="260.71" y1="142.26" x2="293.51" y2="123.64" stroke="black" stroke-width="2" stroke-linejoin="round" stroke-linecap="round" />
<line x1="307.90" y1="136.17" x2="291.74" y2="126.66" stroke="black" stroke-width="2" stroke-linejoin="round" stroke-linecap="round" />
<line x1="307.90" y1="136.17" x2="314.90" y2="140.28" stroke="red" stroke-width="2" stroke-linejoin="round" stroke-linecap="round" />
<line x1="311.45" y1="130.13" x2="295.28" y2="120.63" stroke="black" stroke-width="2" stroke-linejoin="round" stroke-linecap="round" />
<line x1="311.45" y1="130.13" x2="318.44" y2="134.25" stroke="red" stroke-width="2" stroke-linejoin="round" stroke-linecap="round" />
<line x1="293.51" y1="123.64" x2="293.84" y2="86.05" stroke="black" stroke-width="2" stroke-linejoin="round" stroke-linecap="round" />
<line x1="293.84" y1="86.05" x2="261.06" y2="66.78" stroke="black" stroke-width="2" stroke-linejoin="round" stroke-linecap="round" />
<line x1="285.04" y1="89.00" x2="262.76" y2="75.90" stroke="black" stroke-width="2" stroke-linejoin="round" stroke-linecap="round" />
<line x1="293.84" y1="86.05" x2="326.73" y2="67.39" stroke="black" stroke-width="2" stroke-linejoin="round" stroke-linecap="round" />
<line x1="326.73" y1="67.39" x2="327.13" y2="29.40" stroke="black" stroke-width="2" stroke-linejoin="round" stroke-linecap="round" />
<line x1="319.79" y1="61.24" x2="320.06" y2="35.41" stroke="black" stroke-width="2" stroke-linejoin="round" stroke-linecap="round" />
<line x1="327.13" y1="29.40" x2="294.35" y2="10.14" stroke="black" stroke-width="2" stroke-linejoin="round" stroke-linecap="round" />
<line x1="294.35" y1="10.14" x2="261.17" y2="28.86" stroke="black" stroke-width="2" stroke-linejoin="round" stroke-linecap="round" />
<line x1="292.48" y1="19.23" x2="269.92" y2="31.96" stroke="black" stroke-width="2" stroke-linejoin="round" stroke-linecap="round" />
<line x1="261.17" y1="28.86" x2="261.06" y2="66.78" stroke="black" stroke-width="2" stroke-linejoin="round" stroke-linecap="round" />
<line x1="261.06" y1="66.78" x2="228.47" y2="85.60" stroke="black" stroke-width="2" stroke-linejoin="round" stroke-linecap="round" />
<line x1="212.11" y1="76.02" x2="228.47" y2="85.60" stroke="black" stroke-width="2" stroke-linejoin="round" stroke-linecap="round" />
<line x1="212.11" y1="76.02" x2="203.77" y2="71.13" stroke="blue" stroke-width="2" stroke-linejoin="round" stroke-linecap="round" />
<line x1="208.58" y1="82.06" x2="219.70" y2="88.58" stroke="black" stroke-width="2" stroke-linejoin="round" stroke-linecap="round" />
<line x1="208.58" y1="82.06" x2="197.45" y2="75.55" stroke="blue" stroke-width="2" stroke-linejoin="round" stroke-linecap="round" />
<text x="65.39" y="184.73" fill="#ff0080" font-family="Arial" font-size="16" font-style="normal" font-weight="normal" text-anchor="middle">  Et </text>
<text x="65.34" y="147.23" fill="blue" font-family="Arial" font-size="16" font-style="normal" font-weight="normal" text-anchor="middle">  N </text>
<text x="32.84" y="128.53" fill="#ff0080" font-family="Arial" font-size="16" font-style="normal" font-weight="normal" text-anchor="middle">  Et </text>
<text x="195.44" y="147.39" fill="red" font-family="Arial" font-size="16" font-style="normal" font-weight="normal" text-anchor="middle">  O </text>
<text x="325.83" y="147.93" fill="red" font-family="Arial" font-size="16" font-style="normal" font-weight="normal" text-anchor="middle">  O </text>
<text x="195.76" y="71.72" fill="blue" font-family="Arial" font-size="16" font-style="normal" font-weight="normal" text-anchor="middle">  N </text>
</svg>
