<?xml version="1.0" encoding="UTF-8"?>
<!DOCTYPE svg PUBLIC "-//W3C//DTD SVG 1.1//EN"
  "http://www.w3.org/Graphics/SVG/1.1/DTD/svg11.dtd">
<svg xmlns="http://www.w3.org/2000/svg" xmlns:xlink="http://www.w3.org/1999/xlink"   viewBox="0.00 0.00 476.00 313.00">
<!-- Created by OpenEye Scientific Software -->
<!-- Creation Date Wed May 11 13:11:50 2022 -->
<rect width="476.00" height="313.00" fill="white" />
<line x1="257.39" y1="130.98" x2="429.25" y2="65.73" stroke="#eb006c" stroke-width="2" stroke-linejoin="round" stroke-linecap="round" />
<line x1="257.39" y1="130.98" x2="86.18" y2="195.99" stroke="blue" stroke-width="2" stroke-linejoin="round" stroke-linecap="round" />
<line x1="432.57" y1="77.15" x2="435.16" y2="72.67" stroke="#eb006c" stroke-width="2" stroke-linejoin="round" stroke-linecap="round" />
<line x1="432.57" y1="77.15" x2="430.34" y2="81.01" stroke="blue" stroke-width="2" stroke-linejoin="round" stroke-linecap="round" />
<line x1="432.57" y1="109.62" x2="430.34" y2="105.76" stroke="blue" stroke-width="2" stroke-linejoin="round" stroke-linecap="round" />
<line x1="432.57" y1="109.62" x2="441.95" y2="125.86" stroke="black" stroke-width="2" stroke-linejoin="round" stroke-linecap="round" />
<line x1="404.86" y1="97.28" x2="409.23" y2="96.35" stroke="blue" stroke-width="2" stroke-linejoin="round" stroke-linecap="round" />
<line x1="404.86" y1="97.28" x2="386.52" y2="101.18" stroke="black" stroke-width="2" stroke-linejoin="round" stroke-linecap="round" />
<line x1="369.39" y1="93.55" x2="386.52" y2="101.18" stroke="black" stroke-width="2" stroke-linejoin="round" stroke-linecap="round" />
<line x1="369.39" y1="93.55" x2="365.31" y2="91.74" stroke="blue" stroke-width="2" stroke-linejoin="round" stroke-linecap="round" />
<line x1="373.95" y1="83.32" x2="385.60" y2="88.50" stroke="black" stroke-width="2" stroke-linejoin="round" stroke-linecap="round" stroke-dasharray=" 1 3 1 3 1 3 1 3 " />
<line x1="373.95" y1="83.32" x2="362.30" y2="78.13" stroke="blue" stroke-width="2" stroke-linejoin="round" stroke-linecap="round" stroke-dasharray=" 1 3 1 3 1 3 1 3 " />
<line x1="386.52" y1="101.18" x2="382.60" y2="138.48" stroke="black" stroke-width="2" stroke-linejoin="round" stroke-linecap="round" />
<line x1="382.60" y1="138.48" x2="416.86" y2="153.73" stroke="black" stroke-width="2" stroke-linejoin="round" stroke-linecap="round" />
<line x1="382.60" y1="138.48" x2="352.26" y2="160.52" stroke="black" stroke-width="2" stroke-linejoin="round" stroke-linecap="round" />
<line x1="352.26" y1="160.52" x2="356.18" y2="197.81" stroke="black" stroke-width="2" stroke-linejoin="round" stroke-linecap="round" />
<line x1="356.18" y1="197.81" x2="390.44" y2="213.06" stroke="black" stroke-width="2" stroke-linejoin="round" stroke-linecap="round" />
<line x1="390.44" y1="213.06" x2="420.78" y2="191.02" stroke="black" stroke-width="2" stroke-linejoin="round" stroke-linecap="round" />
<line x1="420.78" y1="191.02" x2="416.86" y2="153.73" stroke="black" stroke-width="2" stroke-linejoin="round" stroke-linecap="round" />
<line x1="416.86" y1="153.73" x2="441.95" y2="125.86" stroke="black" stroke-width="2" stroke-linejoin="round" stroke-linecap="round" />
<line x1="238.30" y1="189.73" x2="441.95" y2="125.86" stroke="black" stroke-width="2" stroke-linejoin="round" stroke-linecap="round" />
<line x1="238.30" y1="189.73" x2="48.28" y2="249.33" stroke="blue" stroke-width="2" stroke-linejoin="round" stroke-linecap="round" />
<line x1="234.95" y1="179.04" x2="373.43" y2="135.61" stroke="black" stroke-width="2" stroke-linejoin="round" stroke-linecap="round" stroke-dasharray=" 1 3 1 3 1 3 1 3 " />
<line x1="234.95" y1="179.04" x2="96.46" y2="222.48" stroke="blue" stroke-width="2" stroke-linejoin="round" stroke-linecap="round" stroke-dasharray=" 1 3 1 3 1 3 1 3 " />
<line x1="51.78" y1="245.98" x2="47.70" y2="247.80" stroke="blue" stroke-width="2" stroke-linejoin="round" stroke-linecap="round" />
<line x1="51.78" y1="245.98" x2="68.91" y2="238.35" stroke="black" stroke-width="2" stroke-linejoin="round" stroke-linecap="round" />
<line x1="56.34" y1="256.22" x2="44.69" y2="261.40" stroke="blue" stroke-width="2" stroke-linejoin="round" stroke-linecap="round" stroke-dasharray=" 1 3 1 3 1 3 1 3 " />
<line x1="56.34" y1="256.22" x2="67.98" y2="251.03" stroke="black" stroke-width="2" stroke-linejoin="round" stroke-linecap="round" stroke-dasharray=" 1 3 1 3 1 3 1 3 " />
<line x1="68.91" y1="238.35" x2="103.17" y2="253.61" stroke="black" stroke-width="2" stroke-linejoin="round" stroke-linecap="round" />
<line x1="70.87" y1="219.71" x2="68.91" y2="238.35" stroke="black" stroke-width="2" stroke-linejoin="round" stroke-linecap="round" />
<line x1="70.87" y1="219.71" x2="71.33" y2="215.27" stroke="blue" stroke-width="2" stroke-linejoin="round" stroke-linecap="round" />
<line x1="91.17" y1="197.16" x2="86.80" y2="198.09" stroke="blue" stroke-width="2" stroke-linejoin="round" stroke-linecap="round" />
<line x1="91.17" y1="197.16" x2="109.51" y2="193.26" stroke="black" stroke-width="2" stroke-linejoin="round" stroke-linecap="round" />
<line x1="122.05" y1="179.33" x2="109.51" y2="193.26" stroke="black" stroke-width="2" stroke-linejoin="round" stroke-linecap="round" />
<line x1="122.05" y1="179.33" x2="125.04" y2="176.01" stroke="blue" stroke-width="2" stroke-linejoin="round" stroke-linecap="round" />
<line x1="113.73" y1="171.83" x2="105.20" y2="181.31" stroke="black" stroke-width="2" stroke-linejoin="round" stroke-linecap="round" stroke-dasharray=" 1 3 1 3 1 3 1 3 " />
<line x1="113.73" y1="171.83" x2="122.26" y2="162.36" stroke="blue" stroke-width="2" stroke-linejoin="round" stroke-linecap="round" stroke-dasharray=" 1 3 1 3 1 3 1 3 " />
<line x1="136.56" y1="146.75" x2="136.09" y2="151.19" stroke="blue" stroke-width="2" stroke-linejoin="round" stroke-linecap="round" />
<line x1="136.56" y1="146.75" x2="138.52" y2="128.10" stroke="black" stroke-width="2" stroke-linejoin="round" stroke-linecap="round" />
<line x1="125.42" y1="145.58" x2="124.09" y2="158.26" stroke="blue" stroke-width="2" stroke-linejoin="round" stroke-linecap="round" stroke-dasharray=" 1 3 1 3 1 3 1 3 " />
<line x1="125.42" y1="145.58" x2="126.75" y2="132.90" stroke="black" stroke-width="2" stroke-linejoin="round" stroke-linecap="round" stroke-dasharray=" 1 3 1 3 1 3 1 3 " />
<line x1="138.52" y1="128.10" x2="175.20" y2="120.30" stroke="black" stroke-width="2" stroke-linejoin="round" stroke-linecap="round" />
<line x1="129.15" y1="111.86" x2="138.52" y2="128.10" stroke="black" stroke-width="2" stroke-linejoin="round" stroke-linecap="round" />
<line x1="129.15" y1="111.86" x2="126.91" y2="108.00" stroke="blue" stroke-width="2" stroke-linejoin="round" stroke-linecap="round" />
<line x1="138.85" y1="106.26" x2="145.22" y2="117.30" stroke="black" stroke-width="2" stroke-linejoin="round" stroke-linecap="round" stroke-dasharray=" 1 3 1 3 1 3 1 3 " />
<line x1="138.85" y1="106.26" x2="132.47" y2="95.22" stroke="blue" stroke-width="2" stroke-linejoin="round" stroke-linecap="round" stroke-dasharray=" 1 3 1 3 1 3 1 3 " />
<line x1="226.64" y1="74.54" x2="133.79" y2="92.86" stroke="blue" stroke-width="2" stroke-linejoin="round" stroke-linecap="round" />
<line x1="226.64" y1="74.54" x2="333.51" y2="53.45" stroke="black" stroke-width="2" stroke-linejoin="round" stroke-linecap="round" />
<line x1="228.81" y1="85.53" x2="156.14" y2="99.87" stroke="blue" stroke-width="2" stroke-linejoin="round" stroke-linecap="round" stroke-dasharray=" 1 3 1 3 1 3 1 3 " />
<line x1="228.81" y1="85.53" x2="301.48" y2="71.19" stroke="black" stroke-width="2" stroke-linejoin="round" stroke-linecap="round" stroke-dasharray=" 1 3 1 3 1 3 1 3 " />
<line x1="342.89" y1="69.69" x2="333.51" y2="53.45" stroke="black" stroke-width="2" stroke-linejoin="round" stroke-linecap="round" />
<line x1="342.89" y1="69.69" x2="345.12" y2="73.56" stroke="blue" stroke-width="2" stroke-linejoin="round" stroke-linecap="round" />
<line x1="352.59" y1="64.09" x2="346.21" y2="53.05" stroke="black" stroke-width="2" stroke-linejoin="round" stroke-linecap="round" stroke-dasharray=" 1 3 1 3 1 3 1 3 " />
<line x1="352.59" y1="64.09" x2="358.96" y2="75.13" stroke="blue" stroke-width="2" stroke-linejoin="round" stroke-linecap="round" stroke-dasharray=" 1 3 1 3 1 3 1 3 " />
<line x1="333.51" y1="53.45" x2="296.83" y2="61.25" stroke="black" stroke-width="2" stroke-linejoin="round" stroke-linecap="round" />
<line x1="296.83" y1="61.25" x2="175.20" y2="120.30" stroke="black" stroke-width="2" stroke-linejoin="round" stroke-linecap="round" />
<line x1="296.83" y1="61.25" x2="285.24" y2="96.91" stroke="black" stroke-width="2" stroke-linejoin="round" stroke-linecap="round" />
<line x1="285.24" y1="96.91" x2="248.56" y2="104.71" stroke="black" stroke-width="2" stroke-linejoin="round" stroke-linecap="round" />
<line x1="248.56" y1="104.71" x2="223.47" y2="76.84" stroke="black" stroke-width="2" stroke-linejoin="round" stroke-linecap="round" />
<line x1="223.47" y1="76.84" x2="186.79" y2="84.64" stroke="black" stroke-width="2" stroke-linejoin="round" stroke-linecap="round" />
<line x1="186.79" y1="84.64" x2="175.20" y2="120.30" stroke="black" stroke-width="2" stroke-linejoin="round" stroke-linecap="round" />
<line x1="109.51" y1="193.26" x2="128.26" y2="225.74" stroke="black" stroke-width="2" stroke-linejoin="round" stroke-linecap="round" />
<line x1="128.26" y1="225.74" x2="103.17" y2="253.61" stroke="black" stroke-width="2" stroke-linejoin="round" stroke-linecap="round" />
<line x1="128.26" y1="225.74" x2="164.94" y2="233.54" stroke="black" stroke-width="2" stroke-linejoin="round" stroke-linecap="round" />
<line x1="164.94" y1="233.54" x2="176.53" y2="269.20" stroke="black" stroke-width="2" stroke-linejoin="round" stroke-linecap="round" />
<line x1="176.53" y1="269.20" x2="151.43" y2="297.07" stroke="black" stroke-width="2" stroke-linejoin="round" stroke-linecap="round" />
<line x1="151.43" y1="297.07" x2="114.75" y2="289.27" stroke="black" stroke-width="2" stroke-linejoin="round" stroke-linecap="round" />
<line x1="114.75" y1="289.27" x2="103.17" y2="253.61" stroke="black" stroke-width="2" stroke-linejoin="round" stroke-linecap="round" />
<line x1="432.57" y1="44.67" x2="435.16" y2="49.14" stroke="#eb006c" stroke-width="2" stroke-linejoin="round" stroke-linecap="round" />
<line x1="432.57" y1="44.67" x2="432.62" y2="44.75" stroke="#82d700" stroke-width="2" stroke-linejoin="round" stroke-linecap="round" />
<text x="441.95" y="69.82" fill="#eb006c" font-family="Arial" font-size="27" font-style="normal" font-weight="normal" text-anchor="middle">  B </text>
<text x="423.20" y="102.29" fill="blue" font-family="Arial" font-size="27" font-style="normal" font-weight="normal" text-anchor="middle">  N </text>
<text x="34.65" y="262.52" fill="blue" font-family="Arial" font-size="27" font-style="normal" font-weight="normal" text-anchor="middle">  N </text>
<text x="72.83" y="209.97" fill="blue" font-family="Arial" font-size="27" font-style="normal" font-weight="normal" text-anchor="middle">  N </text>
<text x="134.60" y="174.30" fill="blue" font-family="Arial" font-size="27" font-style="normal" font-weight="normal" text-anchor="middle">  N </text>
<text x="119.77" y="104.53" fill="blue" font-family="Arial" font-size="27" font-style="normal" font-weight="normal" text-anchor="middle">  N </text>
<text x="352.26" y="94.84" fill="blue" font-family="Arial" font-size="27" font-style="normal" font-weight="normal" text-anchor="middle">  N </text>
<text x="423.20" y="37.34" fill="#82d700" font-family="Arial" font-size="27" font-style="normal" font-weight="normal" text-anchor="middle">  Cl </text>
<circle cx="410.23" cy="122.53" r="19.14" fill="none" stroke="black" stroke-width="2" stroke-linejoin="round" stroke-linecap="round" />
<circle cx="386.52" cy="175.77" r="26.25" fill="none" stroke="black" stroke-width="2" stroke-linejoin="round" stroke-linecap="round" />
<circle cx="96.53" cy="222.40" r="19.14" fill="none" stroke="black" stroke-width="2" stroke-linejoin="round" stroke-linecap="round" />
<circle cx="236.02" cy="90.78" r="13.12" fill="none" stroke="black" stroke-width="2" stroke-linejoin="round" stroke-linecap="round" />
<circle cx="139.85" cy="261.40" r="26.25" fill="none" stroke="black" stroke-width="2" stroke-linejoin="round" stroke-linecap="round" />
</svg>
